<svg width="49" height="48" viewBox="0 0 49 48" fill="none" xmlns="http://www.w3.org/2000/svg">
<rect x="0.5" width="48" height="48" rx="24" fill="white"/>
<path fill-rule="evenodd" clip-rule="evenodd" d="M19.2625 14.2979C16.2327 14.2979 13.7766 16.7761 13.7766 19.8332C13.7766 22.8903 16.2327 25.3686 19.2625 25.3686C20.6124 25.3686 21.849 24.8762 22.8046 24.0602L23.8983 24.8879C25.0258 25.7411 26.6438 25.3557 27.274 24.0838L28.2509 22.1125H32.6659L31.7272 20.1588H29.219L30.8796 16.8076L35.1219 25.3686H37.266L32.3228 15.3514C31.7282 14.1514 30.0311 14.1514 29.4365 15.3514L25.5423 23.2101C25.4522 23.3918 25.2211 23.4469 25.06 23.325L24.041 22.5539C24.4914 21.7502 24.7484 20.8216 24.7484 19.8332C24.7484 16.7761 22.2923 14.2979 19.2625 14.2979ZM15.7128 19.8332C15.7128 17.8551 17.3021 16.2515 19.2625 16.2515C21.2229 16.2515 22.8122 17.8551 22.8122 19.8332C22.8122 20.3822 22.69 20.9017 22.4716 21.3662L20.876 20.1587L19.7143 21.7216L21.1922 22.84C20.6367 23.2038 19.9743 23.4149 19.2625 23.4149C17.3021 23.4149 15.7128 21.8113 15.7128 19.8332Z" fill="black"/>
<path d="M16.1669 29.8916H17.2202V29.1831H16.1669V27.1658H15.3574V29.1831H14.4406V29.8916H15.3574V33.759C15.3574 34.0936 15.4322 34.3396 15.5817 34.497C15.7312 34.6479 15.9621 34.7234 16.2741 34.7234C16.4367 34.7234 16.674 34.6971 16.9861 34.6447V33.946H16.518C16.3619 33.946 16.2644 33.9328 16.2254 33.9066C16.1864 33.8738 16.1669 33.7885 16.1669 33.6508V29.8916Z" fill="black"/>
<path fill-rule="evenodd" clip-rule="evenodd" d="M18.6525 32.0074H23.3143C23.2948 31.0889 23.025 30.3673 22.5048 29.8424C21.9847 29.311 21.3377 29.0453 20.564 29.0453C19.7903 29.0453 19.1401 29.3242 18.6135 29.8818C18.0933 30.4394 17.8333 31.1086 17.8333 31.8893C17.8333 32.67 18.0933 33.3391 18.6135 33.8968C19.1336 34.4478 19.7936 34.7234 20.5933 34.7234C21.1719 34.7234 21.6693 34.5889 22.0854 34.3199C22.5016 34.0444 22.8624 33.6212 23.168 33.0505L22.4853 32.6962C22.0367 33.5425 21.3865 33.9657 20.5348 33.9657C20.0341 33.9657 19.6018 33.7885 19.2377 33.4343C18.8801 33.0734 18.685 32.5978 18.6525 32.0074ZM21.7539 30.2164C22.0984 30.4722 22.3195 30.8298 22.417 31.289H18.75C19.0491 30.3181 19.6538 29.8326 20.564 29.8326C21.0126 29.8326 21.4093 29.9605 21.7539 30.2164Z" fill="black"/>
<path d="M29.6183 33.4539C29.3387 33.8672 28.9714 34.1821 28.5163 34.3986C28.0676 34.6151 27.58 34.7234 27.0534 34.7234C26.2341 34.7234 25.5482 34.4511 24.9956 33.9066C24.4494 33.3621 24.1763 32.6962 24.1763 31.909C24.1763 31.1217 24.4527 30.4493 25.0053 29.8916C25.558 29.3274 26.2731 29.0453 27.1509 29.0453C27.671 29.0453 28.1489 29.1601 28.5845 29.3898C29.0267 29.6194 29.3713 29.9408 29.6183 30.3541L28.9844 30.7576C28.5098 30.1344 27.8888 29.8227 27.1216 29.8227C26.517 29.8227 26.0098 30.0196 25.6002 30.4132C25.1906 30.8002 24.9858 31.2824 24.9858 31.8598C24.9858 32.4371 25.1874 32.9324 25.5905 33.3457C25.9936 33.759 26.504 33.9657 27.1216 33.9657C27.8628 33.9657 28.487 33.6508 28.9941 33.021L29.6183 33.4539Z" fill="black"/>
<path d="M34.5869 34.5463H35.3964V31.7909C35.3964 31.0627 35.3184 30.5247 35.1623 30.177C35.0063 29.8227 34.7722 29.5472 34.4601 29.3504C34.1481 29.147 33.8002 29.0453 33.4166 29.0453C32.6949 29.0453 32.0707 29.3602 31.5441 29.99V27.1658H30.7346V34.5463H31.5441V32.5584C31.5441 31.8499 31.5733 31.3776 31.6319 31.1414C31.6969 30.9052 31.8107 30.6822 31.9732 30.4722C32.1358 30.2623 32.3308 30.0983 32.5584 29.9802C32.7859 29.8621 33.0232 29.8031 33.2703 29.8031C33.5239 29.8031 33.7384 29.8523 33.914 29.9507C34.096 30.0425 34.2391 30.1803 34.3431 30.364C34.4471 30.5411 34.5122 30.7314 34.5382 30.9347C34.5707 31.1381 34.5869 31.4891 34.5869 31.9877V34.5463Z" fill="black"/>
</svg>
