<svg width="1241" height="427" viewBox="0 0 1241 427" fill="none" xmlns="http://www.w3.org/2000/svg">
<path d="M43 246H140.365C152.515 246 162.365 255.85 162.365 268V301C162.365 313.15 172.215 323 184.365 323H214.683H343.5" stroke="#2B384B" stroke-width="2"/>
<path d="M1.00003 0L1 107.5V162.5C1 174.65 10.8497 184.5 23 184.5H73C85.1502 184.5 95 194.35 95 206.5L95 233" stroke="#2B384B" stroke-width="2"/>
<path d="M218 365L218 353.979V353.979C218 344.049 209.951 336 200.021 336L117 336C104.85 336 95 326.15 95 314L95 262" stroke="#2B384B" stroke-width="2"/>
<path d="M43 426H100C112.15 426 122 416.15 122 404V387C122 374.85 131.85 365 144 365H247.365H357.5" stroke="#2B384B" stroke-width="2"/>
<path d="M167 366C167.552 366 168 365.552 168 365C168 364.448 167.552 364 167 364V366ZM144 366H167V364H144V366ZM123 397V387H121V397H123ZM144 364C131.297 364 121 374.297 121 387H123C123 375.402 132.402 366 144 366V364Z" fill="url(#paint0_linear_149_48)"/>
<circle cx="95" cy="246" r="15" fill="#455874" stroke="#2B384B" stroke-width="2"/>
<g filter="url(#filter0_d_149_48)">
<circle cx="218" cy="365" r="10" fill="white"/>
<circle cx="218" cy="365" r="9" stroke="#4F96FF" stroke-width="2"/>
</g>
<rect x="206" y="322" width="42" height="2" rx="1" fill="url(#paint1_linear_149_48)"/>
<path d="M1198 271H1018.5C1011.6 271 1006 265.404 1006 258.5V258.5C1006 251.596 1000.4 246 993.5 246H884" stroke="#2B384B" stroke-width="2"/>
<path d="M1240 0L1240 107.5V162.5C1240 174.65 1230.15 184.5 1218 184.5H1168C1155.85 184.5 1146 194.35 1146 206.5V269.5" stroke="#2B384B" stroke-width="2"/>
<path d="M1077.5 365L1077.5 317.479V317.479C1077.5 307.549 1085.55 299.5 1095.48 299.5L1124 299.5C1136.15 299.5 1146 289.65 1146 277.5L1146 262" stroke="#2B384B" stroke-width="2"/>
<path d="M1198 426H1141C1128.85 426 1119 416.15 1119 404V387C1119 374.85 1109.15 365 1097 365H1027C1014.85 365 1005 374.85 1005 387V394C1005 406.15 995.15 416 983 416H881" stroke="#2B384B" stroke-width="2"/>
<circle cx="16" cy="16" r="15" transform="matrix(-1 0 0 1 1162 255)" fill="#455874" stroke="#2B384B" stroke-width="2"/>
<g filter="url(#filter1_d_149_48)">
<rect x="1067" y="355" width="20" height="20" rx="6" fill="white"/>
<rect x="1068" y="356" width="18" height="18" rx="5" stroke="#FFA8F6" stroke-width="2"/>
</g>
<rect x="1055" y="364" width="2" height="24" rx="1" transform="rotate(90 1055 364)" fill="url(#paint2_linear_149_48)"/>
<defs>
<filter id="filter0_d_149_48" x="188" y="334" width="60" height="60" filterUnits="userSpaceOnUse" color-interpolation-filters="sRGB">
<feFlood flood-opacity="0" result="BackgroundImageFix"/>
<feColorMatrix in="SourceAlpha" type="matrix" values="0 0 0 0 0 0 0 0 0 0 0 0 0 0 0 0 0 0 127 0" result="hardAlpha"/>
<feOffset dy="-1"/>
<feGaussianBlur stdDeviation="10"/>
<feComposite in2="hardAlpha" operator="out"/>
<feColorMatrix type="matrix" values="0 0 0 0 0.258824 0 0 0 0 0.541176 0 0 0 0 1 0 0 0 1 0"/>
<feBlend mode="normal" in2="BackgroundImageFix" result="effect1_dropShadow_149_48"/>
<feBlend mode="normal" in="SourceGraphic" in2="effect1_dropShadow_149_48" result="shape"/>
</filter>
<filter id="filter1_d_149_48" x="1058" y="346" width="38" height="38" filterUnits="userSpaceOnUse" color-interpolation-filters="sRGB">
<feFlood flood-opacity="0" result="BackgroundImageFix"/>
<feColorMatrix in="SourceAlpha" type="matrix" values="0 0 0 0 0 0 0 0 0 0 0 0 0 0 0 0 0 0 127 0" result="hardAlpha"/>
<feOffset/>
<feGaussianBlur stdDeviation="4.5"/>
<feComposite in2="hardAlpha" operator="out"/>
<feColorMatrix type="matrix" values="0 0 0 0 1 0 0 0 0 0.658333 0 0 0 0 0.965834 0 0 0 1 0"/>
<feBlend mode="normal" in2="BackgroundImageFix" result="effect1_dropShadow_149_48"/>
<feBlend mode="normal" in="SourceGraphic" in2="effect1_dropShadow_149_48" result="shape"/>
</filter>
<linearGradient id="paint0_linear_149_48" x1="144.5" y1="365" x2="133" y2="391.5" gradientUnits="userSpaceOnUse">
<stop stop-color="#418AFF"/>
<stop offset="1" stop-color="#418AFF" stop-opacity="0"/>
</linearGradient>
<linearGradient id="paint1_linear_149_48" x1="206" y1="323" x2="248" y2="323" gradientUnits="userSpaceOnUse">
<stop stop-color="#FFA8F6"/>
<stop offset="1" stop-color="#FFA8F6" stop-opacity="0"/>
</linearGradient>
<linearGradient id="paint2_linear_149_48" x1="1056" y1="364" x2="1056" y2="388" gradientUnits="userSpaceOnUse">
<stop stop-color="#FFA8F6"/>
<stop offset="1" stop-color="#FFA8F6" stop-opacity="0"/>
</linearGradient>
</defs>
</svg>
