<svg width="49" height="48" viewBox="0 0 49 48" fill="none" xmlns="http://www.w3.org/2000/svg">
<path d="M33.4143 0L31.4395 11.5702C30.8347 15.1134 28.1797 17.9569 24.6863 18.803L18.3286 20.3429L24.6863 21.8827C28.1797 22.7288 30.8347 25.5723 31.4395 29.1155L33.4143 40.6857L35.3892 29.1155C35.994 25.5723 38.6489 22.7288 42.1423 21.8827L48.5 20.3429L42.1423 18.803C38.6489 17.9569 35.994 15.1134 35.3892 11.5702L33.4143 0Z" fill="url(#paint0_linear_96_104)"/>
<path d="M8.27143 0L7.75673 2.95968C7.14027 6.50452 4.47176 9.34156 0.971256 10.1737L0.5 10.2857L0.971256 10.3977C4.47176 11.2299 7.14027 14.0669 7.75673 17.6118L8.27143 20.5714L8.78613 17.6118C9.40259 14.0669 12.0711 11.2299 15.5716 10.3977L16.0429 10.2857L15.5716 10.1737C12.0711 9.34156 9.40259 6.50452 8.78613 2.95968L8.27143 0Z" fill="url(#paint1_linear_96_104)"/>
<path d="M18.3286 27.4286L17.8139 30.3883C17.1974 33.9331 14.5289 36.7702 11.0284 37.6023L10.5571 37.7143L11.0284 37.8263C14.5289 38.6585 17.1974 41.4955 17.8139 45.0403L18.3286 48L18.8433 45.0403C19.4597 41.4955 22.1282 38.6585 25.6287 37.8263L26.1 37.7143L25.6287 37.6023C22.1282 36.7702 19.4597 33.9331 18.8433 30.3883L18.3286 27.4286Z" fill="url(#paint2_linear_96_104)"/>
<defs>
<linearGradient id="paint0_linear_96_104" x1="27.7572" y1="16.9524" x2="43.2585" y2="36.1113" gradientUnits="userSpaceOnUse">
<stop stop-color="#418AFF"/>
<stop offset="1" stop-color="#FFA8F6"/>
</linearGradient>
<linearGradient id="paint1_linear_96_104" x1="5.35714" y1="8.57143" x2="13.1631" y2="18.4012" gradientUnits="userSpaceOnUse">
<stop stop-color="#418AFF"/>
<stop offset="1" stop-color="#FFA8F6"/>
</linearGradient>
<linearGradient id="paint2_linear_96_104" x1="15.4143" y1="36" x2="23.2202" y2="45.8297" gradientUnits="userSpaceOnUse">
<stop stop-color="#418AFF"/>
<stop offset="1" stop-color="#FFA8F6"/>
</linearGradient>
</defs>
</svg>
